<?xml version="1.0" encoding="UTF-8"?>
<!-- Generator: visioncortex VTracer 0.6.12 -->
<svg version="1.1" xmlns="http://www.w3.org/2000/svg" width="901" height="354" viewBox="0 0 901 354">
<path d="M0 0 C3.1324 0.978 6.2665 1.9502 9.4005 2.9232 C10.6002 3.2959 11.7999 3.6686 13.0359 4.0526 C14.2223 4.4211 15.4086 4.7896 16.6309 5.1693 C17.8089 5.5352 18.9868 5.9011 20.2005 6.2781 C23.7809 7.3894 27.362 8.4986 30.9434 9.6068 C32.1716 9.9872 33.3997 10.3676 34.6651 10.7596 C60.0545 18.5947 85.5754 25.9356 111.9434 29.6068 C112.7834 29.7239 113.6234 29.841 114.4888 29.9617 C157.6601 35.6242 201.9111 30.9184 242.9434 16.6068 C243.6411 16.3646 244.3388 16.1224 245.0577 15.8729 C258.4 11.1865 271.0267 5.2271 283.5528 -1.3268 C285.9434 -2.3932 285.9434 -2.3932 288.9434 -2.3932 C288.5667 -0.0404 288.3182 1.2657 286.5267 2.8961 C286.2223 3.081 286.2223 3.081 284.6817 4.0169 C283.9865 4.4438 283.2913 4.8707 282.575 5.3106 C281.8097 5.759 281.0444 6.2073 280.2559 6.6693 C279.4565 7.1453 278.657 7.6214 277.8333 8.1119 C253.7605 22.2148 228.897 31.6444 201.9434 38.6068 C200.7072 38.9355 199.471 39.2642 198.1973 39.6028 C154.9138 50.032 107.7378 45.5333 64.9434 35.6068 C63.8526 35.3544 62.7617 35.1021 61.6378 34.8421 C35.0637 28.6059 8.8022 20.9324 -17.4057 13.3228 C-54.6352 2.5493 -92.3902 -6.6115 -131.3691 -6.6432 C-132.1178 -6.6439 -132.8665 -6.6446 -133.6379 -6.6453 C-176.2974 -6.5845 -223.6176 6.4253 -255.0566 36.6068 C-256.3444 37.6739 -257.6359 38.7366 -258.9316 39.7943 C-274.0918 53.1086 -286.6745 71.4677 -297.0566 88.6068 C-297.779 89.7323 -298.5045 90.8559 -299.2324 91.9778 C-306.2769 102.9065 -312.44 114.2723 -318.5385 125.7498 C-319.8676 128.2512 -321.2047 130.748 -322.5449 133.2435 C-333.4446 153.6392 -343.8997 174.3573 -353.3434 195.4688 C-355.5918 200.4853 -357.9487 205.4222 -360.4277 210.3294 C-364.1833 217.7655 -367.6353 225.3248 -371.0566 232.9193 C-371.697 234.3353 -372.3377 235.7512 -372.9787 237.1671 C-374.3158 240.1211 -375.6517 243.0756 -376.9868 246.0306 C-380.141 253.0085 -383.3133 259.9782 -386.4841 266.9486 C-388.0909 270.4815 -389.6968 274.0148 -391.3027 277.5482 C-392.2115 279.5475 -393.1203 281.5468 -394.0566 283.6068 C-399.6666 283.6068 -405.2766 283.6068 -411.0566 283.6068 C-412.2246 280.8813 -413.3927 278.1558 -414.5607 275.4302 C-415.6184 272.9626 -416.6761 270.4949 -417.7341 268.0274 C-420.446 261.7016 -423.1563 255.3752 -425.8609 249.0463 C-432.1743 234.2727 -438.5045 219.5091 -444.9987 204.8138 C-449.9227 193.6668 -454.7576 182.4814 -459.5949 171.2967 C-461.9377 165.8799 -464.2855 160.4652 -466.634 155.0508 C-468.4948 150.7595 -470.3534 146.4673 -472.2117 142.1749 C-473.9553 138.1478 -475.7007 134.1216 -477.4477 130.096 C-479.6162 125.0989 -481.782 120.1007 -483.9464 115.1019 C-484.8064 113.117 -485.6673 111.1324 -486.5291 109.1482 C-487.7424 106.3541 -488.9526 103.5587 -490.162 100.763 C-490.5261 99.9268 -490.8901 99.0905 -491.2651 98.229 C-491.6039 97.4442 -491.9426 96.6594 -492.2917 95.8509 C-492.5856 95.173 -492.8794 94.4952 -493.1822 93.7968 C-494.255 91.1098 -495.1416 88.3515 -496.0566 85.6068 C-490.7766 85.6068 -485.4966 85.6068 -480.0566 85.6068 C-475.9311 93.4864 -472.5354 101.6786 -469.0566 109.8568 C-468.3866 111.4264 -467.7163 112.9959 -467.0458 114.5652 C-465.362 118.5075 -463.6805 122.4509 -461.9997 126.3945 C-454.9833 142.8529 -447.9066 159.2816 -440.6816 175.6497 C-437.8475 182.0729 -435.0463 188.5102 -432.2519 194.9507 C-429.487 201.3216 -426.7121 207.688 -423.9316 214.0521 C-422.8053 216.6312 -421.6791 219.2104 -420.553 221.7896 C-419.8203 223.4669 -419.0872 225.144 -418.3536 226.8209 C-413.154 238.7081 -408.0638 250.6372 -403.0566 262.6068 C-398.1714 251.3267 -393.9333 239.8009 -389.6191 228.2943 C-384.8868 215.68 -380.1245 203.0905 -375.0566 190.6068 C-374.2017 188.4833 -373.3475 186.3597 -372.4941 184.2357 C-372.0931 183.2382 -371.6921 182.2407 -371.279 181.213 C-370.8756 180.2085 -370.4722 179.2041 -370.0566 178.1693 C-369.8397 177.6293 -369.8397 177.6293 -368.7424 174.897 C-366.4065 169.0581 -364.1437 163.2039 -361.9941 157.2943 C-358.4922 147.851 -354.2846 138.7428 -350.0566 129.6068 C-349.6863 128.7977 -349.316 127.9887 -348.9345 127.1551 C-326.0999 77.2964 -293.5531 32.3792 -246.0566 3.6068 C-244.9519 2.9313 -243.8471 2.2558 -242.7089 1.5599 C-166.3639 -43.6686 -79.5697 -24.8577 0 0 Z " fill="#29ABE2" transform="translate(517.0565795898438,47.39324951171875)"/>
<path d="M0 0 C13.953 12.1109 21.418 26.946 23.5234 45.2148 C24.1175 61.7047 18.0895 77.1709 7.5117 89.6719 C-4.1732 101.8355 -19.259 107.7118 -35.8633 108.8594 C-54.4395 108.8594 -70.5095 102.6904 -83.9844 89.8359 C-95.443 77.8357 -100.3086 62.0902 -100.1367 45.7773 C-98.8995 28.0503 -91.143 13.0203 -77.9336 1.1211 C-55.4929 -16.8967 -22.9468 -17.1553 0 0 Z " fill="#FFFFFF" transform="translate(315.86328125,215.140625)"/>
<path d="M0 0 C10.8101 8.8389 17.4966 21.7176 19.9102 35.4141 C21.6182 54.665 18.2662 70.6991 6.1602 86.1641 C-2.7137 95.8127 -15.9887 103.7686 -29.0898 105.4141 C-30.1379 105.5468 -31.1859 105.6796 -32.2656 105.8164 C-49.3458 107.5073 -65.3556 103.9643 -79.0898 93.4141 C-79.4024 93.1775 -79.4024 93.1775 -80.9844 91.9805 C-90.9382 83.9784 -99.4425 70.2217 -101.0898 57.4141 C-101.2329 56.4137 -101.376 55.4134 -101.5234 54.3828 C-103.4688 36.5741 -98.5113 20.1559 -87.4102 6.1055 C-64.2365 -20.7744 -26.9216 -20.4302 0 0 Z " fill="#FFFFFF" transform="translate(490.08984375,217.5859375)"/>
<path d="M0 0 C0.33 0.165 0.33 0.165 2 1 C1.166 1.7386 0.332 2.4773 -0.5273 3.2383 C-7.734 9.7011 -14.0488 16.3399 -20 24 C-20.9763 25.2029 -21.9556 26.4033 -22.9375 27.6016 C-29.0909 35.1343 -34.7669 42.7886 -40 51 C-40.7167 52.0983 -41.4334 53.1966 -42.1719 54.3281 C-49.7456 65.9458 -56.8499 77.8017 -63.5625 89.9375 C-63.9852 90.6989 -64.4078 91.4602 -64.8433 92.2446 C-68.7514 99.3737 -72.3515 106.6509 -75.9684 113.9302 C-77.5978 117.1994 -79.2468 120.4587 -80.8945 123.7188 C-87.5916 136.9969 -94.2129 150.2822 -100.2864 163.8613 C-102.5351 168.878 -104.892 173.8152 -107.3711 178.7227 C-111.1267 186.1588 -114.5787 193.718 -118 201.3125 C-118.6404 202.7286 -119.2811 204.1445 -119.9221 205.5603 C-121.2593 208.5143 -122.5951 211.4689 -123.9302 214.4238 C-127.0844 221.4017 -130.2568 228.3714 -133.4275 235.3419 C-135.0344 238.8748 -136.6402 242.4081 -138.2461 245.9414 C-139.1549 247.9407 -140.0637 249.9401 -141 252 C-146.61 252 -152.22 252 -158 252 C-159.1681 249.2745 -160.3361 246.549 -161.5042 243.8235 C-162.5618 241.3558 -163.6195 238.8882 -164.6775 236.4207 C-167.3894 230.0949 -170.0997 223.7684 -172.8043 217.4395 C-179.1177 202.6659 -185.4479 187.9023 -191.9421 173.207 C-196.8662 162.0601 -201.701 150.8747 -206.5383 139.69 C-208.8811 134.2731 -211.2289 128.8585 -213.5774 123.4441 C-215.4382 119.1528 -217.2968 114.8605 -219.1551 110.5681 C-220.8987 106.5411 -222.6442 102.5148 -224.3911 98.4893 C-226.5596 93.4922 -228.7254 88.494 -230.8898 83.4952 C-231.7498 81.5102 -232.6107 79.5256 -233.4725 77.5414 C-234.6858 74.7474 -235.896 71.952 -237.1055 69.1562 C-237.4695 68.32 -237.8335 67.4838 -238.2085 66.6222 C-238.5473 65.8375 -238.8861 65.0527 -239.2351 64.2441 C-239.529 63.5663 -239.8229 62.8884 -240.1257 62.1901 C-241.1984 59.503 -242.0851 56.7448 -243 54 C-237.72 54 -232.44 54 -227 54 C-222.8745 61.8797 -219.4788 70.0718 -216 78.25 C-215.33 79.8196 -214.6598 81.3891 -213.9893 82.9585 C-212.3054 86.9008 -210.6239 90.8441 -208.9431 94.7877 C-201.9267 111.2462 -194.85 127.6749 -187.625 144.043 C-184.7909 150.4662 -181.9897 156.9034 -179.1953 163.344 C-176.4304 169.7148 -173.6555 176.0813 -170.875 182.4453 C-169.7487 185.0244 -168.6226 187.6036 -167.4964 190.1828 C-166.7637 191.8601 -166.0306 193.5372 -165.2971 195.2142 C-160.0974 207.1013 -155.0072 219.0305 -150 231 C-145.1148 219.72 -140.8767 208.1942 -136.5625 196.6875 C-127.9291 173.6746 -127.9291 173.6746 -123.3655 162.3904 C-121.9909 158.9775 -120.6545 155.5515 -119.3242 152.1211 C-114.8117 140.608 -110.4358 129.834 -103.2085 119.7422 C-101.323 117.024 -99.6031 114.2066 -97.8608 111.3953 C-87.4605 94.6294 -76.4638 78.3029 -64 63 C-62.6248 61.2502 -61.2498 59.5002 -59.875 57.75 C-56.4467 53.4734 -52.8285 49.3981 -49.1328 45.3516 C-47.3163 43.3488 -45.5595 41.313 -43.8125 39.25 C-35.0663 29.2456 -25.4626 20.1791 -15 12 C-12.9614 10.3721 -10.9269 8.739 -8.8923 7.106 C-5.9327 4.7317 -2.9664 2.3659 0 0 Z " fill="#0A2050" transform="translate(264,79)"/>
<path d="M0 0 C3.9765 4.0565 7.1059 8.1157 10 13 C10.0125 12.5785 10.0125 12.5785 10.0759 10.4456 C10.1709 7.3276 10.2701 4.2098 10.3723 1.092 C10.4157 -0.2591 10.4574 -1.6104 10.4973 -2.9617 C10.5549 -4.9004 10.6191 -6.8389 10.6836 -8.7773 C10.7019 -9.3612 10.7019 -9.3612 10.7947 -12.3162 C11 -15 11 -15 12 -16 C14.97 -16 17.94 -16 21 -16 C21 28.22 21 72.44 21 118 C17.7 118 14.4 118 11 118 C10.67 108.43 10.34 98.86 10 89 C8.68 90.65 8.68 90.65 2 99 C-12.8391 113.8391 -31.4327 119.5655 -52 120 C-71.6757 119.5368 -88.1561 111.7941 -102 98 C-102.5517 97.4715 -103.1034 96.943 -103.6719 96.3984 C-115.9128 83.5652 -120.6649 65.3466 -120.4731 48.0828 C-119.8502 31.5368 -114.0037 16.4533 -103 4 C-102.282 3.1763 -101.564 2.3526 -100.8242 1.5039 C-88.8568 -11.3645 -71.6721 -19.2161 -54.0547 -20.0039 C-33.0802 -19.9771 -15.5469 -14.4451 0 0 Z M-95.625 9.6875 C-106.4006 22.7132 -111.8688 38.4864 -110.7812 55.4023 C-109.3857 67.5466 -105.4391 78.2793 -98 88 C-97.5617 88.602 -97.1234 89.204 -96.6719 89.8242 C-87.4068 101.6718 -72.9734 108.1247 -58.4062 110.4062 C-39.8086 112.606 -23.8696 107.5102 -8.9648 96.4961 C1.1855 88.3089 8.9102 74.8411 11 62 C12.7619 41.9287 9.388 24.9748 -3.8125 9.1875 C-14.5828 -2.2884 -29.4562 -9.6495 -45.1992 -10.2031 C-64.9207 -10.5479 -81.8415 -5.074 -95.625 9.6875 Z " fill="#0A2050" transform="translate(499,213)"/>
<path d="M0 0 C6.6316 5.2843 12.7569 12.6637 15.918 20.5664 C15.918 21.2264 15.918 21.8864 15.918 22.5664 C12.948 23.8864 9.978 25.2064 6.918 26.5664 C6.5545 25.9257 6.1909 25.2851 5.8164 24.625 C-2.227 10.7863 -11.9506 3.1275 -27.6172 -1.1211 C-41.8339 -4.2852 -57.6569 -2.2221 -70.082 5.5664 C-76.7072 9.8167 -76.7072 9.8167 -78.082 12.5664 C-78.742 12.5664 -79.402 12.5664 -80.082 12.5664 C-80.3295 13.2058 -80.577 13.8452 -80.832 14.5039 C-81.8762 17.062 -82.9923 19.5565 -84.1445 22.0664 C-88.0891 30.9967 -88.1804 39.929 -85.0508 49.1875 C-80.7774 59.6814 -73.1786 66.1607 -63.0625 70.9688 C-53.703 74.9092 -43.7733 77.5748 -34.082 80.5664 C-14.2719 86.7089 6.3938 93.9978 16.668 113.5039 C22.4346 125.0179 22.7574 139.3592 19.293 151.6289 C16.4622 159.5611 12.1608 165.9182 5.918 171.5664 C5.3675 172.1207 4.8171 172.675 4.25 173.2461 C-1.1822 178.4654 -7.038 181.0587 -14.082 183.5664 C-15.0488 183.9209 -16.0156 184.2754 -17.0117 184.6406 C-36.9354 190.6482 -60.9497 187.0055 -79.082 177.5664 C-90.5699 170.4436 -99.2506 161.867 -105.082 149.5664 C-105.082 148.5764 -105.082 147.5864 -105.082 146.5664 C-103.762 145.9064 -103.762 145.9064 -97.082 142.5664 C-94.8794 145.3844 -93.0796 148.2617 -91.332 151.3789 C-83.6297 164.2224 -71.9217 170.5586 -57.8789 174.6211 C-42.5774 178.4307 -24.2894 178.1387 -10.082 170.7539 C0.2243 164.509 6.5846 157.3154 9.793 145.4414 C12.2632 133.9963 10.6236 124.3178 4.7188 114.1992 C-5.1836 99.7216 -23.2879 94.9109 -39.2422 90.2852 C-80.474 78.3113 -80.474 78.3113 -91.8359 59.9648 C-98.885 46.397 -99.3306 34.1146 -95.082 19.5664 C-89.8444 6.5394 -80.0433 -1.7901 -67.543 -7.6172 C-45.0541 -17.121 -19.9566 -13.7412 0 0 Z " fill="#0A2050" transform="translate(663.08203125,145.43359375)"/>
<path d="M0 0 C12.0909 11.6 20.3024 28.1064 20.8984 44.9805 C21.1076 65.4733 17.3751 83.3706 2.7297 98.5359 C-12.6743 113.8129 -30.7311 120.4494 -52.4023 120.4922 C-72.6104 119.8565 -90.0276 112.0266 -104.0859 97.2461 C-118.5918 80.0005 -121.4361 61.26 -120.4023 39.4922 C-118.633 24.1687 -109.5502 9.8244 -98.4023 -0.5078 C-97.8996 -1.0273 -97.3969 -1.5468 -96.8789 -2.082 C-69.828 -28.3652 -26.7647 -22.8752 0 0 Z M-97.3594 11.6094 C-108.3552 24.6894 -112.8253 41.6478 -111.4023 58.4922 C-108.722 74.5745 -100.598 89.9809 -87.3164 99.7656 C-71.0579 110.1541 -53.8551 113.603 -34.832 109.7734 C-20.1209 106.0229 -7.1044 97.9332 1.4102 85.1797 C10.5471 69.7503 14.2048 53.9113 9.9102 36.3047 C7.1481 25.8227 2.6396 17.6847 -4.4023 9.4922 C-4.9012 8.8863 -5.4001 8.2805 -5.9141 7.6562 C-14.7882 -2.2238 -29.2818 -8.8262 -42.4697 -9.6345 C-64.656 -10.387 -81.9998 -5.0071 -97.3594 11.6094 Z " fill="#0A2050" transform="translate(327.40234375,212.5078125)"/>
<path d="M0 0 C3.3 0 6.6 0 10 0 C10.0059 1.0633 10.0117 2.1266 10.0178 3.2221 C10.0752 13.2844 10.1481 23.3464 10.2357 33.4084 C10.2803 38.5804 10.3196 43.7522 10.3464 48.9243 C10.3726 53.9236 10.4131 58.9226 10.4632 63.9216 C10.4798 65.8208 10.4913 67.72 10.4976 69.6192 C10.5549 85.3612 11.3779 100.998 22.5625 113.25 C33.5072 123.4706 46.8386 125.6255 61.1641 125.3047 C74.5084 124.6702 85.1778 119.3983 94.375 109.6875 C105.1068 95.9558 105.4523 78.5076 105.5117 61.9141 C105.5286 60.118 105.5468 58.322 105.5661 56.526 C105.6132 51.8474 105.6433 47.1689 105.6696 42.4902 C105.6996 37.6965 105.746 32.9029 105.791 28.1094 C105.8766 18.7397 105.9441 9.3699 106 0 C107.4791 -0.0269 108.9583 -0.0463 110.4375 -0.0625 C111.2612 -0.0741 112.0849 -0.0857 112.9336 -0.0977 C115 0 115 0 116 1 C116.0962 2.7209 116.1219 4.4458 116.1203 6.1694 C116.1209 6.7297 116.1209 6.7297 116.1244 9.5648 C116.1226 10.1848 116.1226 10.1848 116.1135 13.3225 C116.1137 14.6199 116.1138 15.9173 116.114 17.2539 C116.1143 20.822 116.1084 24.3899 116.1014 27.958 C116.0952 31.6829 116.0946 35.4078 116.0934 39.1328 C116.0903 46.1912 116.082 53.2495 116.072 60.3079 C116.0609 68.3416 116.0553 76.3754 116.0503 84.4091 C116.0399 100.9394 116.0223 117.4697 116 134 C112.7 134 109.4 134 106 134 C106 126.41 106 118.82 106 111 C105.34 111 104.68 111 104 111 C103.7306 111.5814 103.4612 112.1627 103.1836 112.7617 C97.6384 123.2481 87.0799 129.0978 76.3867 133.2734 C61.1214 137.9205 41.5326 136.4342 27.375 129.375 C14.1188 121.6279 5.4382 110.5739 1.3985 95.8001 C-0.6049 86.2455 -0.2507 76.6052 -0.1953 66.8945 C-0.1916 64.9597 -0.1887 63.0249 -0.1867 61.09 C-0.1792 56.0316 -0.1595 50.9732 -0.1373 45.9148 C-0.1168 40.7394 -0.1077 35.5641 -0.0977 30.3887 C-0.0763 20.2591 -0.0422 10.1295 0 0 Z " fill="#0A2050" transform="translate(715,197)"/>
<path d="M0 0 C3.3 0 6.6 0 10 0 C10 65.34 10 130.68 10 198 C7.03 198 4.06 198 1 198 C0.0746 193.3034 -0.1393 188.759 -0.1203 183.9894 C-0.1211 183.2002 -0.122 182.4111 -0.1228 181.598 C-0.1245 178.9633 -0.119 176.3286 -0.1135 173.6938 C-0.1132 171.8014 -0.1134 169.9089 -0.114 168.0164 C-0.1143 162.8847 -0.1084 157.753 -0.1014 152.6213 C-0.0951 147.2561 -0.0946 141.8909 -0.0934 136.5257 C-0.0903 126.3686 -0.0821 116.2115 -0.072 106.0544 C-0.0608 94.4898 -0.0553 82.9252 -0.0503 71.3606 C-0.0399 47.5737 -0.0223 23.7869 0 0 Z " fill="#0A2050" transform="translate(870,133)"/>
</svg>
